<?xml version="1.0" encoding="utf-8"?>
<!-- Generator: Adobe Illustrator 21.1.0, SVG Export Plug-In . SVG Version: 6.00 Build 0)  -->
<svg version="1.1" id="Layer_1" xmlns="http://www.w3.org/2000/svg" xmlns:xlink="http://www.w3.org/1999/xlink" x="0px" y="0px"
	 viewBox="0 0 500 500" style="enable-background:new 0 0 500 500;" xml:space="preserve">
<style type="text/css">
	.st0{fill:#FFC836;}
	.st1{fill:#69AC58;}
	.st2{fill:#2370A0;}
	.st3{fill:#D8655E;}
</style>
<g transform="translate(0.000000,500.000000) scale(0.100000,-0.100000)">
	<path class="st0" d="M1150,2500V0h450h450v2500v2500h-450h-450V2500z"/>
	<path class="st1" d="M2290,2270V0h450h450v2270v2270h-450h-450V2270z"/>
	<path class="st2" d="M3825,3926l-430-82l2-24c3-27,714-3813,717-3817c1-1,200,35,442,80l439,83l-2,24c-10,95-719,3820-728,3819
		C4260,4008,4062,3971,3825,3926z"/>
	<path class="st3" d="M0,1955V0h450h450v1955v1955H450H0V1955z"/>
</g>
</svg>
