<?xml version="1.0" encoding="utf-8"?>
<!-- Generator: Adobe Illustrator 16.0.0, SVG Export Plug-In . SVG Version: 6.00 Build 0)  -->
<!DOCTYPE svg PUBLIC "-//W3C//DTD SVG 1.1//EN" "http://www.w3.org/Graphics/SVG/1.1/DTD/svg11.dtd">
<svg version="1.1" id="Layer_1" xmlns="http://www.w3.org/2000/svg" xmlns:xlink="http://www.w3.org/1999/xlink" x="0px" y="0px"
	 width="612px" height="469.215px" viewBox="0 0 612 469.215" enable-background="new 0 0 612 469.215" xml:space="preserve">
<g>
	<path d="M101.417,370.398c0,28.883-7.302,38.91-28.229,38.91s-28.338-10.027-28.338-38.91c0-28.883,7.412-38.911,28.338-38.911
		S101.417,341.515,101.417,370.398z M49.645,370.398c0,25.94,5.995,34.878,23.543,34.878c17.548,0,23.542-8.938,23.542-34.878
		c0-25.941-5.995-34.878-23.542-34.878C55.64,335.521,49.645,344.458,49.645,370.398z M69.373,413.342
		c7.193,4.469,15.259,7.193,25.613,8.828l-1.417,4.469c-10.028-1.525-19.074-5.559-25.832-10.682L69.373,413.342z"/>
	<path d="M160.821,408.001h-3.379l-0.436-9.046c-8.501,6.866-16.24,10.354-23.979,10.354c-9.373,0-14.169-4.904-14.169-14.387
		v-39.456h4.36v38.583c-0.109,7.848,3.488,11.335,11.008,11.335c7.084,0,13.079-3.379,22.235-9.809v-40.109h4.359V408.001z"/>
	<path d="M220.225,369.417v38.583h-3.27l-0.763-9.81c-4.469,4.469-14.496,10.572-24.415,10.572c-8.938,0-14.278-4.904-14.278-13.624
		v-6.54c0-7.957,4.795-12.534,13.079-12.534h25.287v-6.648c0-6.649-2.616-11.335-11.663-11.335c-7.303,0-16.24,0.763-24.087,1.635
		l-0.436-3.27c7.084-0.981,14.932-2.289,25.068-2.289C214.449,354.158,220.225,358.3,220.225,369.417z M215.866,394.704v-15.15
		l-24.851,0.327c-6.104,0.109-9.046,3.27-9.046,9.046v5.886c0,6.54,3.378,9.809,10.245,9.917
		C199.517,404.949,209.653,400.59,215.866,394.704z"/>
	<path d="M282.681,368.545v39.456h-4.36v-38.583c0-7.957-3.487-11.335-10.79-11.335c-7.521,0-13.951,3.488-23.651,10.027v39.892
		h-4.251v-52.535h3.487l0.437,9.264c8.72-6.976,16.894-10.572,24.959-10.572C277.775,354.158,282.681,359.063,282.681,368.545z"/>
	<path d="M309.496,396.447c0,5.668,2.834,8.283,8.393,8.283h9.155l0.545,3.162c-3.052,0.545-7.956,0.871-10.027,0.871
		c-8.283,0-12.425-4.25-12.425-11.88v-37.712h-9.482v-3.161l9.482-0.545v-16.24h4.359v16.24h18.747v3.706h-18.747V396.447z"/>
	<path d="M386.556,407.456c-10.027,0.653-21.472,0.653-32.263,0.653c-8.828,0-14.387-5.014-14.496-13.079v-49.265
		c0.109-8.065,5.668-13.079,14.496-13.079c10.791,0,22.235,0,32.263,0.654l-0.437,7.521h-30.19c-4.469,0-6.54,2.18-6.54,7.194
		v16.349h32.48v7.739h-32.48v20.6c0,5.124,2.071,7.303,6.54,7.303h30.19L386.556,407.456z"/>
	<path d="M440.293,356.12l-1.199,5.995c-4.796-0.436-10.681-0.654-14.387-0.654c-12.644,0-17.003,4.469-17.003,19.946
		c0,15.585,4.359,20.054,17.003,20.054c3.16,0,10.136-0.218,15.586-1.09l0.98,6.213c-5.34,1.854-11.989,2.725-18.201,2.725
		c-18.312,0-25.178-7.411-25.178-27.902s6.866-27.793,25.286-27.793C427.867,353.613,435.062,354.158,440.293,356.12z"/>
	<path d="M500.353,381.516c0,20.382-6.649,27.902-24.96,27.902c-18.202,0-24.959-7.521-24.959-27.902
		c0-20.273,6.757-27.902,24.959-27.902C493.703,353.613,500.353,361.243,500.353,381.516z M460.134,381.516
		c0,15.477,3.705,20.055,15.259,20.055s15.368-4.578,15.368-20.055c0-15.477-3.814-20.055-15.368-20.055
		S460.134,366.039,460.134,381.516z"/>
	<path d="M561.5,368.218v39.783h-9.264v-37.167c0-7.084-2.181-9.373-7.63-9.373c-6.321,0-11.989,3.161-20.491,8.283v38.257h-9.264
		v-53.08h7.847l0.654,8.393c8.065-6.212,15.913-9.7,23.761-9.7C556.486,353.613,561.5,358.627,561.5,368.218z"/>
</g>
<rect x="34.333" y="180.5" fill="#D25664" width="11.667" height="65.167"/>
<rect x="52.667" y="170.124" fill="#D25664" width="11.667" height="81.542"/>
<rect x="69.333" y="152.748" fill="#D25664" width="11.667" height="81.542"/>
<rect x="87.333" y="164.124" fill="#D25664" width="11.667" height="81.542"/>
<rect x="104.167" y="165.124" fill="#D25664" width="11.667" height="62.542"/>
<rect x="122.001" y="187.124" fill="#D25664" width="11.667" height="69.876"/>
<rect x="138.667" y="187.124" fill="#D25664" width="11.667" height="75.209"/>
<rect x="156.167" y="146.853" fill="#D25664" width="11.667" height="98.814"/>
<rect x="174.335" y="112.124" fill="#FFC836" width="11" height="133.542"/>
<rect x="192.334" y="95.353" fill="#FFC836" width="11" height="133.542"/>
<rect x="209.668" y="112.124" fill="#FFC836" width="11" height="98.771"/>
<rect x="227.334" y="100.467" fill="#FFC836" width="11" height="133.824"/>
<rect x="245.168" y="129.483" fill="#FFC836" width="11" height="110.85"/>
<rect x="262.001" y="157.658" fill="#FFC836" width="11" height="134.008"/>
<rect x="279.501" y="211.083" fill="#FFC836" width="11" height="110.583"/>
<rect x="296.5" y="181.5" fill="#FFC836" width="11" height="104.833"/>
<rect x="314.666" y="165.124" fill="#6DAE5C" width="12.001" height="139.876"/>
<rect x="332.334" y="111.562" fill="#6DAE5C" width="12.001" height="150.771"/>
<rect x="347.668" y="48.896" fill="#6DAE5C" width="12" height="147.5"/>
<rect x="367.166" y="34.396" fill="#6DAE5C" width="12" height="152.552"/>
<rect x="384.668" y="76.472" fill="#6DAE5C" width="12" height="87.652"/>
<rect x="401.667" y="54.138" fill="#6DAE5C" width="12" height="132.81"/>
<rect x="419.167" y="89.252" fill="#6DAE5C" width="12" height="132.81"/>
<rect x="436" y="133.565" fill="#6DAE5C" width="12" height="123.435"/>
<rect x="454.334" y="163.852" fill="#1665AD" width="10.999" height="71.21"/>
<rect x="471" y="204.729" fill="#1665AD" width="10.999" height="57.605"/>
<rect x="488.168" y="193.259" fill="#1665AD" width="10.998" height="81.074"/>
<rect x="506.501" y="175.926" fill="#1665AD" width="10.998" height="76.074"/>
<rect x="524.501" y="181.5" fill="#1665AD" width="10.998" height="80.833"/>
<rect x="541.501" y="199.917" fill="#1665AD" width="10.998" height="45.75"/>
<rect x="559.579" y="217.459" fill="#1665AD" width="10.998" height="56.875"/>
</svg>
